<?xml version="1.0" encoding="UTF-8"?>
<svg width="48px" height="48px" viewBox="0 0 48 48" version="1.1" xmlns="http://www.w3.org/2000/svg" xmlns:xlink="http://www.w3.org/1999/xlink">
    <title>编组 56备份@3x</title>
    <g id="主页编辑" stroke="none" stroke-width="1" fill="none" fill-rule="evenodd">
        <g id="1213-默认K吧和文集-更新不带圆角" transform="translate(-404.000000, -90.000000)">
            <g id="编组-56备份" transform="translate(404.000000, 90.000000)">
                <path d="M44,0 C46.209139,-4.05812251e-16 48,1.790861 48,4 L48,44 C48,46.209139 46.209139,48 44,48 L4,48 C1.790861,48 2.705415e-16,46.209139 0,44 L0,4 C-2.705415e-16,1.790861 1.790861,4.05812251e-16 4,0 L44,0 Z M32.5714286,12.5714286 L15.4285714,12.5714286 C14.4817976,12.5714286 13.7142857,13.3389404 13.7142857,14.2857143 L13.7142857,33.7142857 C13.7142857,34.6610596 14.4817976,35.4285714 15.4285714,35.4285714 L32.5714286,35.4285714 C33.5182024,35.4285714 34.2857143,34.6610596 34.2857143,33.7142857 L34.2857143,14.2857143 C34.2857143,13.3389404 33.5182024,12.5714286 32.5714286,12.5714286 Z M25.7142857,29.1428571 C26.029877,29.1428571 26.2857143,29.3986944 26.2857143,29.7142857 L26.2857143,30.2857143 C26.2857143,30.6013056 26.029877,30.8571429 25.7142857,30.8571429 L18.8571429,30.8571429 C18.5415516,30.8571429 18.2857143,30.6013056 18.2857143,30.2857143 L18.2857143,29.7142857 C18.2857143,29.3986944 18.5415516,29.1428571 18.8571429,29.1428571 Z M29.1428571,24.5714286 C29.4584484,24.5714286 29.7142857,24.8272659 29.7142857,25.1428571 L29.7142857,25.7142857 C29.7142857,26.029877 29.4584484,26.2857143 29.1428571,26.2857143 L18.8571429,26.2857143 C18.5415516,26.2857143 18.2857143,26.029877 18.2857143,25.7142857 L18.2857143,25.1428571 C18.2857143,24.8272659 18.5415516,24.5714286 18.8571429,24.5714286 Z M29.1428571,17.1428571 C29.4584484,17.1428571 29.7142857,17.3986944 29.7142857,17.7142857 L29.7142857,21.1428571 C29.7142857,21.4584484 29.4584484,21.7142857 29.1428571,21.7142857 L18.8571429,21.7142857 C18.5415516,21.7142857 18.2857143,21.4584484 18.2857143,21.1428571 L18.2857143,17.7142857 C18.2857143,17.3986944 18.5415516,17.1428571 18.8571429,17.1428571 L29.1428571,17.1428571 Z" id="文集默认页-不带圆角" fill="#CAE6FC"></path>
                <g id="编组-55" transform="translate(13.714286, 12.571429)"></g>
            </g>
        </g>
    </g>
</svg>