<svg xmlns="http://www.w3.org/2000/svg" fill="none" viewBox="0 0 20 20" class="design-iconfont">
  <g clip-path="url(#oxpnwyhh9__clip0_16_11216)" stroke="color(display-p3 .2 .2 .2)">
    <path clip-rule="evenodd" d="M3.5 11.5H8C8 12.6046 8.89543 13.5 10 13.5C11.1046 13.5 12 12.6046 12 11.5H16.5C17.0523 11.5 17.5 11.9477 17.5 12.5V16C17.5 16.5523 17.0523 17 16.5 17H3.5C2.94772 17 2.5 16.5523 2.5 16V12.5C2.5 11.9477 2.94772 11.5 3.5 11.5Z" stroke-linejoin="round"/>
    <path d="M4.5 11.5V4C4.5 3.44772 4.94772 3 5.5 3H14.5C15.0523 3 15.5 3.44772 15.5 4V11.5"/>
    <path d="M9 6H11" stroke-linecap="round"/>
    <path d="M9 8.5H11" stroke-linecap="round"/>
  </g>
  <defs>
    <clipPath id="oxpnwyhh9__clip0_16_11216">
      <path fill="#fff" d="M0 0H20V20H0z"/>
    </clipPath>
  </defs>
</svg>
