<svg xmlns="http://www.w3.org/2000/svg" fill="none" viewBox="0 0 20 20" class="design-iconfont">
  <g clip-path="url(#p0zvf5aah__clip0_16_11205)">
    <path fill-rule="evenodd" clip-rule="evenodd" d="M10.4865 2.4827C10.0683 2.21408 9.51148 2.33535 9.24286 2.75357L6.95611 6.3118L2.86701 7.38589C2.74208 7.4187 2.62567 7.47801 2.5257 7.5598L2.43638 7.64349C2.13411 7.96778 2.11049 8.47362 2.399 8.82627L5.07611 12.0978L4.83436 16.3215C4.82695 16.4505 4.84739 16.5795 4.89428 16.6999L4.9418 16.8025C5.15466 17.1959 5.6321 17.3783 6.05962 17.2117L10.0001 15.6758L13.9406 17.2117C14.061 17.2586 14.19 17.2791 14.3189 17.2717L14.4313 17.2582C14.8711 17.1773 15.1922 16.7796 15.1659 16.3215L14.9231 12.0978L17.6012 8.82627C17.683 8.7263 17.7423 8.60989 17.7751 8.48496L17.797 8.37399C17.856 7.93066 17.577 7.50242 17.1332 7.38589L13.0431 6.3118L10.7574 2.75357C10.6876 2.64489 10.5952 2.55251 10.4865 2.4827ZM7.69348 7.01617L10.0001 3.4258L12.3067 7.01617L12.3642 7.08951C12.4279 7.1569 12.5096 7.2057 12.6004 7.22957L16.7281 8.3128L14.026 11.617L13.974 11.6943C13.9296 11.7757 13.9084 11.8685 13.9138 11.9623L14.1581 16.2238L10.1816 14.6739L10.0921 14.6483C10.0009 14.6313 9.90614 14.6398 9.81859 14.6739L5.84111 16.2238L6.08638 11.9623L6.08304 11.8692C6.07109 11.7773 6.0337 11.6898 5.9742 11.617L3.27111 8.3128L7.39977 7.22957C7.52095 7.19775 7.62577 7.12159 7.69348 7.01617Z" fill="color(display-p3 .2 .2 .2)"/>
    <path d="M8.75 11.4502V11.4502C9.44036 12.1406 10.5596 12.1406 11.25 11.4502V11.4502" stroke="color(display-p3 .2 .2 .2)" stroke-linecap="round"/>
  </g>
  <defs>
    <clipPath id="p0zvf5aah__clip0_16_11205">
      <path fill="#fff" d="M0 0H20V20H0z"/>
    </clipPath>
  </defs>
</svg>
